<svg xmlns="http://www.w3.org/2000/svg" viewBox="0 0 128 128" role="img" aria-label="noteme">
  <defs>
    <linearGradient id="bg" x1="18" y1="8" x2="110" y2="120" gradientUnits="userSpaceOnUse">
      <stop offset="0%" stop-color="#1a8a76"/>
      <stop offset="100%" stop-color="#0c574b"/>
    </linearGradient>
    <linearGradient id="fold" x1="86" y1="22" x2="108" y2="44" gradientUnits="userSpaceOnUse">
      <stop offset="0%" stop-color="#efe8da"/>
      <stop offset="100%" stop-color="#d5c9b4"/>
    </linearGradient>
  </defs>

  <!-- App tile -->
  <rect width="128" height="128" rx="28" fill="url(#bg)"/>

  <!-- Soft glow -->
  <circle cx="40" cy="36" r="36" fill="#ffffff" opacity="0.08"/>

  <!-- Note sheet -->
  <path
    d="M34 24h50l24 24v56a12 12 0 0 1-12 12H34a12 12 0 0 1-12-12V36a12 12 0 0 1 12-12z"
    fill="#fffdf8"
  />

  <!-- Folded corner -->
  <path d="M84 24v16a8 8 0 0 0 8 8h16L84 24z" fill="url(#fold)"/>
  <path d="M84 24v16a8 8 0 0 0 8 8" stroke="#c4b8a4" stroke-width="1.5" stroke-linecap="round" fill="none"/>

  <!-- Accent bar (first line) -->
  <rect x="36" y="54" width="40" height="7" rx="3.5" fill="#0f6b5c"/>

  <!-- Body lines -->
  <rect x="36" y="70" width="56" height="6" rx="3" fill="#0f6b5c" opacity="0.28"/>
  <rect x="36" y="84" width="48" height="6" rx="3" fill="#0f6b5c" opacity="0.28"/>
  <rect x="36" y="98" width="34" height="6" rx="3" fill="#0f6b5c" opacity="0.28"/>
</svg>
